<svg id="图层_1" data-name="图层 1" xmlns="http://www.w3.org/2000/svg" xmlns:xlink="http://www.w3.org/1999/xlink" width="14.82mm" height="14.46mm" viewBox="0 0 42 41">
  <defs>
    <style>
      .cls-1, .cls-3 {
        fill: none;
      }

      .cls-2 {
        clip-path: url(#clip-path);
      }

      .cls-3 {
        stroke: #000;
        stroke-width: 2px;
      }
    </style>
    <clipPath id="clip-path" transform="translate(0)">
      <rect class="cls-1" width="42" height="41"/>
    </clipPath>
  </defs>
  <g class="cls-2">
    <path class="cls-3" d="M6.86,29.76C3.24,30.84,1,32.34,1,34c0,3.31,9,6,20,6s20-2.69,20-6c0-1.66-2.24-3.16-5.86-4.24" transform="translate(0)"/>
    <path class="cls-3" d="M21,32s13-8.5,13-18.32A12.84,12.84,0,0,0,21,1,12.84,12.84,0,0,0,8,13.68C8,23.5,21,32,21,32Z" transform="translate(0)"/>
    <circle class="cls-3" cx="21" cy="14" r="5"/>
  </g>
</svg>
