<?xml version="1.0" encoding="utf-8"?>
<!-- Generator: Adobe Illustrator 28.1.0, SVG Export Plug-In . SVG Version: 6.00 Build 0)  -->
<svg version="1.1" id="图层_1" xmlns="http://www.w3.org/2000/svg" xmlns:xlink="http://www.w3.org/1999/xlink" x="0px" y="0px"
	 viewBox="0 0 60.2 60.1" style="enable-background:new 0 0 60.2 60.1;" xml:space="preserve">
<style type="text/css">
	.st0{fill:none;}
	.st1{stroke:#000000;stroke-width:1.5;stroke-miterlimit:10;}
	.st2{fill:none;stroke:#FFFFFF;stroke-width:1.5;}
	.st3{fill:#FFFFFF;}
</style>
<g>
	<g>
		<g>
			<g>
				<g>
					<rect x="0" y="0" class="st0" width="60.2" height="60.1"/>
				</g>
			</g>
		</g>
	</g>
	<g>
		<g>
			<circle class="st1" cx="30.1" cy="30" r="22.6"/>
		</g>
		<g>
			<g>
				<path class="st2" d="M35.7,19.9H24.5c-2.5,0-4.5,2-4.5,4.5v11.2c0,2.5,2,4.5,4.5,4.5h11.2c2.5,0,4.5-2,4.5-4.5V24.4
					C40.2,21.9,38.2,19.9,35.7,19.9z"/>
				<path class="st2" d="M30.1,34.5c2.5,0,4.5-2,4.5-4.5s-2-4.5-4.5-4.5s-4.5,2-4.5,4.5S27.6,34.5,30.1,34.5z"/>
				<path class="st3" d="M36.3,25c0.6,0,1.1-0.5,1.1-1.1s-0.5-1.1-1.1-1.1c-0.6,0-1.1,0.5-1.1,1.1S35.7,25,36.3,25z"/>
			</g>
		</g>
	</g>
</g>
</svg>
