<?xml version="1.0" encoding="utf-8"?>
<!-- Generator: Adobe Illustrator 28.1.0, SVG Export Plug-In . SVG Version: 6.00 Build 0)  -->
<svg version="1.1" id="图层_1" xmlns="http://www.w3.org/2000/svg" xmlns:xlink="http://www.w3.org/1999/xlink" x="0px" y="0px"
	 viewBox="0 0 60.2 60.1" style="enable-background:new 0 0 60.2 60.1;" xml:space="preserve">
<style type="text/css">
	.st0{fill:none;}
	.st1{fill:none;stroke:#000000;stroke-width:1.5;stroke-miterlimit:10;}
	.st2{fill:none;stroke:#000000;stroke-width:1.8;}
</style>
<g>
	<g>
		<g>
			<g>
				<rect x="0" y="0" class="st0" width="60.2" height="60.1"/>
			</g>
		</g>
	</g>
</g>
<g>
	<g>
		<circle class="st1" cx="30.9" cy="30.2" r="22.6"/>
	</g>
	<path class="st2" d="M31,20.9l-9.2,9.2c-2.2,2.2-2.2,5.7,0,7.9l0,0c2.2,2.2,5.7,2.2,7.9,0l11-11c1.5-1.5,1.5-3.8,0-5.3l0,0
		c-1.5-1.5-3.8-1.5-5.3,0l-11,11c-0.7,0.7-0.7,1.9,0,2.6l0,0c0.7,0.7,1.9,0.7,2.6,0l9.2-9.2"/>
	<rect x="0" class="st0" width="60.2" height="60.1"/>
</g>
</svg>
