<?xml version="1.0" encoding="utf-8"?>
<!-- Generator: Adobe Illustrator 28.1.0, SVG Export Plug-In . SVG Version: 6.00 Build 0)  -->
<svg version="1.1" id="图层_1" xmlns="http://www.w3.org/2000/svg" xmlns:xlink="http://www.w3.org/1999/xlink" x="0px" y="0px"
	 viewBox="0 0 60.2 60.1" style="enable-background:new 0 0 60.2 60.1;" xml:space="preserve">
<style type="text/css">
	.st0{fill:none;}
	.st1{fill:#FFFFFF;}
</style>
<g>
	<g>
		<g>
			<g>
				<rect x="0" y="0" class="st0" width="60.2" height="60.1"/>
			</g>
		</g>
	</g>
</g>
<g>
	<g>
		<circle cx="30.9" cy="30.2" r="22.6"/>
	</g>
	<path class="st1" d="M42.9,36.8c-0.5,1-1.6,2-2.8,2.2c-0.1,0-2.8,0.5-8.8,0.5h0c-6,0-8.7-0.5-8.8-0.5c-1.1-0.2-2.3-1.1-2.8-2.2
		c0-0.1-1-2.3-1-6.7s1-6.6,1-6.7c0.5-1,1.6-2,2.8-2.2c0.1,0,2.8-0.5,8.8-0.5c6,0,8.7,0.5,8.8,0.5c1.1,0.2,2.3,1.1,2.8,2.2
		c0,0.1,1,2.3,1,6.7S42.9,36.7,42.9,36.8z M41.4,23.9c-0.2-0.6-1-1.2-1.6-1.3c0,0-2.7-0.5-8.5-0.5c-5.8,0-8.5,0.5-8.5,0.5
		c-0.6,0.1-1.4,0.7-1.6,1.3c0,0-0.9,2-0.9,6.1c0,4.1,0.9,6.1,0.9,6.1c0.2,0.6,1,1.2,1.6,1.3c0,0,2.7,0.5,8.5,0.5h0
		c5.8,0,8.5-0.5,8.5-0.5c0.6-0.1,1.4-0.7,1.6-1.3c0,0,0.9-2,0.9-6.1S41.4,24,41.4,23.9z M29.4,34.6c-0.1,0.1-0.3,0.1-0.4,0.1
		c-0.1,0-0.3,0-0.4-0.1c-0.3-0.1-0.4-0.4-0.4-0.7v-7.9c0-0.3,0.2-0.5,0.4-0.7c0.2-0.1,0.6-0.1,0.8,0l6.3,3.9
		c0.2,0.1,0.4,0.4,0.4,0.7s-0.1,0.5-0.4,0.7L29.4,34.6z M29.7,27.5v5l4-2.5L29.7,27.5z"/>
	<rect x="0" class="st0" width="60.2" height="60.1"/>
</g>
</svg>
