<?xml version="1.0" encoding="utf-8"?>
<!-- Generator: Adobe Illustrator 28.1.0, SVG Export Plug-In . SVG Version: 6.00 Build 0)  -->
<svg version="1.1" id="图层_1" xmlns="http://www.w3.org/2000/svg" xmlns:xlink="http://www.w3.org/1999/xlink" x="0px" y="0px"
	 viewBox="0 0 60.2 60.1" style="enable-background:new 0 0 60.2 60.1;" xml:space="preserve">
<style type="text/css">
	.st0{fill:none;}
	.st1{fill:none;stroke:#000000;stroke-width:1.5;stroke-miterlimit:10;}
</style>
<g>
	<g>
		<g>
			<g>
				<rect x="0" y="0" class="st0" width="60.2" height="60.1"/>
			</g>
		</g>
	</g>
</g>
<g>
	<g>
		<g>
			<g>
				<circle class="st1" cx="30.1" cy="30" r="22.6"/>
			</g>
		</g>
	</g>
	<path d="M36.2,21.7c-1.4-1.4-3.5-2.2-5.6-2.2c-3.3,0-5.4,1.4-6.5,2.5c-1.4,1.4-2.2,3.3-2.2,5.2c0,2.3,1,4.1,2.6,4.8
		c0.1,0,0.2,0.1,0.3,0.1c0.3,0,0.6-0.2,0.7-0.6c0.1-0.2,0.2-0.7,0.2-0.9c0.1-0.4,0-0.7-0.2-1c-0.5-0.6-0.7-1.2-0.7-2.1
		c0-2.6,1.9-5.3,5.5-5.3c2.8,0,4.6,1.6,4.6,4.2c0,1.6-0.3,3.1-1,4.2c-0.4,0.8-1.2,1.7-2.4,1.7c-0.5,0-1-0.2-1.3-0.6
		c-0.3-0.3-0.4-0.8-0.3-1.3c0.1-0.5,0.3-1.1,0.5-1.6c0.3-1,0.6-1.9,0.6-2.6c0-1.3-0.8-2.1-1.9-2.1c-1.5,0-2.6,1.5-2.6,3.4
		c0,0.9,0.2,1.6,0.4,1.9c-0.2,0.8-1.3,5.4-1.5,6.3c-0.1,0.5-0.8,4.5,0.4,4.9c1.3,0.4,2.5-3.6,2.7-4c0.1-0.4,0.4-1.7,0.7-2.6
		c0.6,0.6,1.7,1,2.7,1c1.9,0,3.6-0.9,4.9-2.4c1.2-1.5,1.8-3.6,1.8-6C38.4,24.8,37.6,23,36.2,21.7z"/>
</g>
</svg>
