<?xml version="1.0" encoding="utf-8"?>
<!-- Generator: Adobe Illustrator 28.1.0, SVG Export Plug-In . SVG Version: 6.00 Build 0)  -->
<svg version="1.1" id="图层_1" xmlns="http://www.w3.org/2000/svg" xmlns:xlink="http://www.w3.org/1999/xlink" x="0px" y="0px"
	 viewBox="0 0 60.2 60.1" style="enable-background:new 0 0 60.2 60.1;" xml:space="preserve">
<style type="text/css">
	.st0{fill:none;}
	.st1{fill:none;stroke:#000000;stroke-width:1.5;stroke-miterlimit:10;}
</style>
<g>
	<g>
		<g>
			<g>
				<rect x="0" y="0" class="st0" width="60.2" height="60.1"/>
			</g>
		</g>
	</g>
</g>
<g>
	<g>
		<g>
			<g>
				<g>
					<circle class="st1" cx="30.1" cy="30" r="22.6"/>
				</g>
			</g>
		</g>
	</g>
	<path d="M37.5,22.6c-1-1-2.1-1.7-3.4-2.3c-1.3-0.5-2.6-0.8-4-0.8c-1.8,0-3.6,0.5-5.2,1.4c-1.6,0.9-2.9,2.2-3.8,3.8
		c-0.9,1.6-1.4,3.4-1.4,5.2c0,1.8,0.5,3.6,1.4,5.2l-1.5,5.4l5.5-1.4c1.5,0.8,3.2,1.3,5,1.3c2.8,0,5.4-1.1,7.4-3
		c2-1.9,3.1-4.6,3.1-7.4c0-1.4-0.3-2.7-0.8-4C39.2,24.7,38.4,23.6,37.5,22.6z M30.1,38.6c-1.6,0-3.1-0.4-4.4-1.2l-0.3-0.2l-3.3,0.9
		l0.9-3.2l-0.2-0.3c-1.1-1.8-1.5-3.9-1.2-6c0.4-2.1,1.5-4,3.1-5.3c1.7-1.3,3.7-2,5.9-1.9c2.1,0.1,4.1,1,5.6,2.5
		c1.6,1.6,2.6,3.8,2.6,6.1c0,2.3-1,4.5-2.6,6.1C34.6,37.7,32.4,38.6,30.1,38.6z M34.9,32.1c-0.3-0.1-1.5-0.8-1.8-0.8
		c-0.2-0.1-0.4-0.1-0.6,0.1c-0.3,0.4-0.5,0.7-0.8,1c-0.1,0.2-0.3,0.2-0.6,0c-1.5-0.6-2.7-1.7-3.5-3.1c-0.3-0.5,0.3-0.4,0.8-1.4
		c0-0.1,0.1-0.1,0.1-0.2c0-0.1,0-0.2-0.1-0.2c0-0.1-0.6-1.4-0.8-1.9c-0.2-0.5-0.4-0.4-0.6-0.4h-0.5c-0.1,0-0.3,0-0.4,0.1
		c-0.1,0.1-0.2,0.1-0.3,0.2c-0.3,0.3-0.5,0.6-0.7,1c-0.1,0.4-0.2,0.8-0.2,1.2c0.1,1,0.5,1.9,1.1,2.7c1.1,1.7,2.6,3,4.4,3.9
		c0.9,0.6,2,0.8,3.1,0.7c0.4-0.1,0.7-0.2,1-0.4c0.3-0.2,0.6-0.5,0.7-0.8c0.2-0.4,0.2-0.8,0.2-1.2C35.3,32.3,35.1,32.3,34.9,32.1z"/>
</g>
</svg>
