<svg id="图层_1" data-name="图层 1" xmlns="http://www.w3.org/2000/svg" xmlns:xlink="http://www.w3.org/1999/xlink" width="123.67mm" height="27.47mm" viewBox="0 0 350.56 77.88">
  <defs>
    <style>
      .cls-1 {
        fill: none;
      }

      .cls-2 {
        clip-path: url(#clip-path);
      }
    </style>
    <clipPath id="clip-path" transform="translate(0 0)">
      <rect class="cls-1" width="350.56" height="77.88"/>
    </clipPath>
  </defs>
  <rect x="151.9" y="24.76" width="20.06" height="50.83"/>
  <rect x="114.53" width="20.06" height="75.58"/>
  <rect x="151.9" width="20.06" height="14.72"/>
  <polygon points="189.51 0 189.51 75.58 209.12 75.58 209.12 41.96 248.16 75.58 269.61 75.58 269.61 75.13 226.35 36.88 268.26 4.93 268.26 4.52 244.82 4.52 209.12 32.04 209.12 0 189.51 0"/>
  <g class="cls-2">
    <path d="M69.22,9.31h7.23V47.75C76.28,60.08,66.17,67.56,55.4,67.56S34.51,60.08,34.34,47.75V0H0L6.56,9.31h7.25V47.08c0,22,21.62,30.86,41.59,30.8S97,69.13,97,47.08V0H62.66Z" transform="translate(0 0)"/>
    <path d="M339.24,13.44C331.75,6.22,320.5,2.15,309,2.4c-13.45.26-24.78,4.44-32.78,12.09a34.83,34.83,0,0,0-10.61,25.68c0,11.33,4.77,21.81,13.94,28.54,8.86,6.51,16.83,9.17,29.89,9.17h0a62.07,62.07,0,0,0,10.19-.74C335.5,74.49,345.28,65.86,349,56.39L332,56.31c-2.62,5-10.4,10.48-22.69,10.48-13.84,0-22.65-10.56-23.42-22H350.5c.66-13.31-3.69-24.11-11.26-31.4M286,33.54l.09-.78C287.61,23,295.26,12.84,309,12.84c13.13,0,21.29,11.41,22.12,19.93l.05.77Z" transform="translate(0 0)"/>
  </g>
</svg>
